<?xml version="1.0" encoding="UTF-8"?>
<svg id="Calque_1" xmlns="http://www.w3.org/2000/svg" version="1.1" viewBox="0 0 24 24">
  <!-- Generator: Adobe Illustrator 29.5.1, SVG Export Plug-In . SVG Version: 2.1.0 Build 141)  -->
  <defs>
    <style>
      .st0 {
        fill-rule: evenodd;
      }
    </style>
  </defs>
  <path class="st0" d="M20.73,11.37l-8.73,8.94L3.27,11.37c-.87-.89-1.35-2.08-1.35-3.35s.48-2.46,1.35-3.35c1.81-1.85,4.74-1.85,6.55,0l1.51,1.54c.18.19.42.28.68.28s.5-.11.68-.28l1.51-1.54c1.8-1.85,4.74-1.85,6.55,0,.87.89,1.35,2.08,1.35,3.35s-.48,2.46-1.35,3.35h-.02ZM12.83,3.29l-.83.85-.83-.85C8.62.68,4.47.68,1.91,3.29-.64,5.9-.64,10.14,1.91,12.76l9.41,9.63c.18.19.42.28.68.28s.5-.11.68-.28l9.41-9.63c2.55-2.61,2.55-6.86,0-9.47-2.55-2.61-6.7-2.61-9.26,0h0Z"/>
</svg>