<?xml version="1.0" encoding="UTF-8"?>
<svg id="Flag" xmlns="http://www.w3.org/2000/svg" version="1.1" viewBox="0 0 1990 1050">
  <!-- Generator: Adobe Illustrator 29.4.0, SVG Export Plug-In . SVG Version: 2.1.0 Build 152)  -->
  <defs>
    <style>
      .st0 {
        fill: #1d1d1b;
      }
    </style>
  </defs>
  <g>
    <path class="st0" d="M303.98,877.22c9.6-2.82,14.69-16.38,14.69-35.03,0-14.13-3.39-31.64-9.04-50.29l-19.21-58.76c-8.48,6.22-20.34,11.87-35.03,11.87-49.16,0-77.42-37.86-133.35-37.86-10.18,0-18.65,2.83-24.86,5.66l-14.69,41.24c-6.78,20.9-9.6,38.42-9.6,52.54,0,50.29,33.33,67.24,57.63,70.62H0c19.78-5.65,38.42-35.6,60.46-89.84l111.3-311.32c6.78-18.08,9.61-31.64,9.61-42.94,0-13-3.95-22.6-10.17-31.64h59.33l129.95,398.91c11.3,33.33,33.91,71.19,53.68,76.84h-110.17ZM287.59,724.67l-92.66-283.07-94.93,262.73c10.18-8.48,25.99-17.51,46.9-17.51,39.55,0,84.75,38.98,125.43,38.98,5.65,0,10.73-.57,15.25-1.12Z"/>
    <path class="st0" d="M654.86,798.11c-25.98,36.73-84.75,79.1-144.08,79.1-72.89,0-97.18-46.89-97.18-125.43v-117.52c0-26.56-2.82-46.34-7.9-59.9-5.08-13.55-11.87-20.9-19.78-23.73l72.89-18.64v211.31c0,53.69,4.52,105.1,75.14,105.1,59.33,0,98.88-31.64,120.91-55.37v-158.76c0-26.56-2.82-46.34-7.34-59.9-5.09-13.55-11.87-20.9-20.34-23.73l73.45-18.64v241.82c0,26.56,2.82,46.34,7.35,59.89,5.08,13.56,11.87,21.48,20.33,23.74l-73.45,18.64v-77.97Z"/>
    <path class="st0" d="M926.64,574.36c-53.68,0-94.35,53.12-107.92,75.15v143.51c0,27.13,2.82,46.89,7.35,60.46,5.08,13.56,11.87,20.91,20.33,23.73h-101.14c16.38-5.65,27.68-29.95,27.68-84.19v-157.08c0-27.12-2.82-46.89-7.9-60.46-4.53-13.55-11.3-20.9-19.78-23.73l73.45-18.08v110.75c25.99-45.77,84.75-112.44,144.08-112.44,13,0,24.86,1.69,35.03,4.52l-15.25,71.76c-6.78-14.13-28.82-33.91-55.94-33.91Z"/>
    <path class="st0" d="M1217.65,854.62c-9.08,1.74-18.06,2.22-27.14,2.22-70.6,0-121.5-50.8-137.34-129.32-1.64-9.66-2.8-19.8-3.96-29.36h267.34c-6.86-146.42-110.78-167.28-157.72-167.28-97.16,0-157.04,79.68-157.04,174.62s61.04,174.52,164.38,174.52c70.7,0,131.74-43.46,147.48-96.58-15.26,29.94-48.58,62.68-96,71.18ZM1048.15,674.98c0-66.74,26.56-123.82,87.02-132.22,6.18-1.16,12.36-1.16,18.06-1.16,53.7,0,102.28,35.64,109.62,147.48h-214.12c0-5.12-.58-9.66-.58-14.1Z"/>
    <polygon class="st0" points="1194.46 443.85 1097.28 508.26 1170.73 443.85 1194.46 443.85"/>
    <path class="st0" d="M1605.79,665.9c0-53.68-4.52-104.52-75.14-104.52-59.33,0-98.32,31.63-120.91,55.36v176.29c0,27.13,2.82,46.89,7.9,60.46,4.53,13.56,11.87,20.91,19.78,23.73h-101.14c16.95-5.65,27.68-29.95,27.68-84.19v-157.08c0-27.12-2.82-46.89-7.34-60.46-5.09-13.55-11.87-20.9-20.34-23.73l73.45-18.08v77.41c25.99-36.73,84.75-79.09,144.08-79.09,73.45,0,97.75,46.89,97.75,125.43v135.6c0,27.13,2.82,46.89,7.34,60.46,5.09,13.56,11.87,20.91,20.34,23.73h-101.14c16.38-5.65,27.68-29.95,27.68-84.19v-127.13Z"/>
    <path class="st0" d="M1990,843.89c-7.91,13.56-23.73,33.9-46.89,33.9-28.25,0-32.21-24.86-32.21-36.16v-24.3c-16.95,31.64-49.16,60.46-108.48,60.46-64.41,0-101.14-29.95-101.14-77.41,0-79.67,89.27-89.84,153.12-108.48-32.78-53.11-137.87-22.6-137.87-73.45,0-3.39.57-7.35,1.7-11.3,14.69-59.89,85.32-74.02,116.96-74.02,68.93,0,124.55,42.8,120.29,107.08-4.21,63.56,1.19,211.59,1.19,211.59,0,7.35,2.25,10.18,6.78,10.18,7.9,0,19.77-9.61,26.55-18.08ZM1856.65,685.68v5.08c24.3-7.35,44.64-16.38,54.24-31.08v-28.81c0-42.38-20.9-87.57-87.57-87.57-59.33,0-94.93,38.98-94.93,62.71,0,1.7.57,2.83.57,3.96,2.83,22.03,80.24,14.12,109.05,38.42,12.43,10.73,18.65,23.16,18.65,37.29ZM1910.9,802.64v-131.66c-43.51,46.9-157.64,29.96-157.64,130.53,0,61.59,46.9,65.54,64.42,65.54,53.68,0,81.36-32.78,93.22-64.41Z"/>
  </g>
  <g>
    <g id="qg5SOg">
      <path d="M1654.89,414.96v-99.22h7.14c0,19.95-.22,39.9-.04,59.84.48,52.19,13.5,49.19,46.36,56.63,90.55,20.5,161.78,21.34,247.87-37.18v447.65c-1.99-.08-15.8-35.38-17.8-35.47-2.64-79.05-24.84-172.72-27.53-253.41,0,0,3.66-68.26,15.72-100.57-14.47,4.55-83.74,56.1-219.57,15.57-98.02-29.25-284.87-114.1-370.77-77.38,57.99-37.9,80.49-49.59,273.98,11.13,13.43,4.21,27.12,7.54,44.63,12.41Z"/>
    </g>
    <g id="yZB0FW">
      <path d="M1704.9,399.77c12.68-106.52-48.55-161.82-48.55-161.82,29.47,14.34,44.69,28.54,59.59,57.69,15.89-69.63-7.55-130.93-45.1-186.62,0,0-101.52,122.17-35.93,168.78,0,0-3.49-1.93-5.03-2.88-76.31-47.07-24.93-175.16,40.97-231.14,95.19,117.97,101.1,137.27,34.06,356Z"/>
    </g>
  </g>
  <rect x="1910.9" y="444.1" width="30.2" height="235.56"/>
</svg>