<?xml version="1.0" encoding="UTF-8"?>
<svg id="Calque_1" xmlns="http://www.w3.org/2000/svg" version="1.1" viewBox="0 0 24 21.34">
  <!-- Generator: Adobe Illustrator 29.5.1, SVG Export Plug-In . SVG Version: 2.1.0 Build 141)  -->
  <defs>
    <style>
      .st0 {
        fill-rule: evenodd;
      }
    </style>
  </defs>
  <path class="st0" d="M18.15,6.07C18.15,2.76,15.4.07,12.01.07s-6.14,2.69-6.14,6h-2.8C1.22,6.07-.2,7.65.02,9.44l1.53,9.27c.19,1.5,1.5,2.63,3.04,2.63h14.81c1.55,0,2.85-1.13,3.04-2.63l1.53-9.27c.23-1.79-1.2-3.37-3.04-3.37h-2.8.02ZM16.1,8.07H3.07c-.62,0-1.09.53-1.01,1.12l1.53,9.27c.06.5.5.88,1.01.88h14.81c.52,0,.95-.38,1.01-.88l1.53-9.27c.08-.6-.4-1.12-1.01-1.12,0,0-4.84,0-4.84,0ZM7.92,6.07h8.18c0-2.21-1.83-4-4.09-4s-4.09,1.79-4.09,4Z"/>
</svg>