<?xml version="1.0" encoding="UTF-8"?>
<svg id="Calque_1" xmlns="http://www.w3.org/2000/svg" version="1.1" viewBox="0 0 24 24">
  <!-- Generator: Adobe Illustrator 29.5.1, SVG Export Plug-In . SVG Version: 2.1.0 Build 141)  -->
  <path d="M16.38,18l5.67,5.67c.22.21.51.35.81.33.31,0,.59-.12.81-.34.44-.44.44-1.17,0-1.61l-5.67-5.67.26-.36c1.58-2.18,2.22-4.85,1.8-7.51-.42-2.66-1.86-5-4.04-6.58C13.84.34,11.17-.3,8.51.13,5.85.55,3.51,1.99,1.93,4.17.35,6.35-.29,9.02.13,11.68c.42,2.66,1.86,5,4.04,6.58,3.54,2.57,8.31,2.57,11.85,0l.36-.26ZM10.08,17.89c-2,0-4-.76-5.52-2.28-3.05-3.05-3.05-8,0-11.05,1.45-1.45,3.47-2.29,5.52-2.29,2.06.02,4.07.83,5.52,2.29,3.04,3.05,3.04,8,0,11.05-1.52,1.52-3.52,2.28-5.52,2.28Z"/>
</svg>