<?xml version="1.0" encoding="UTF-8"?>
<svg id="Calque_1" xmlns="http://www.w3.org/2000/svg" version="1.1" viewBox="0 0 128 128">
  <!-- Generator: Adobe Illustrator 29.4.0, SVG Export Plug-In . SVG Version: 2.1.0 Build 152)  -->
  <defs>
    <style>
      .st0 {
        fill: #fff;
      }
    </style>
  </defs>
  <path class="st0" d="M85.08,70.67c10.32-6.85,17.14-18.56,17.14-31.85C102.22,17.74,85.08.59,64,.59S25.78,17.74,25.78,38.82c0,13.29,6.82,25,17.14,31.85C19.57,79.28,2.85,101.7,2.85,128h10.19c0-28.1,22.86-50.96,50.96-50.96s50.96,22.86,50.96,50.96h10.19c0-26.3-16.73-48.72-40.07-57.33ZM64,66.85c-15.46,0-28.03-12.57-28.03-28.03s12.57-28.03,28.03-28.03,28.03,12.57,28.03,28.03-12.57,28.03-28.03,28.03Z"/>
</svg>