<?xml version="1.0" encoding="UTF-8"?>
<svg id="Calque_1" xmlns="http://www.w3.org/2000/svg" version="1.1" viewBox="0 0 128 128">
  <!-- Generator: Adobe Illustrator 29.4.0, SVG Export Plug-In . SVG Version: 2.1.0 Build 152)  -->
  <defs>
    <style>
      .st0 {
        fill: #47566a;
      }

      .st1 {
        fill: #9a99ae;
        opacity: .3;
      }
    </style>
  </defs>
  <circle class="st1" cx="63.95" cy="64" r="64"/>
  <g id="affection">
    <path class="st0" d="M105.08,91c-23.23,19.91-21.65,18.65-22.69,19.24,1.46-4.33-2.71-11.63-9.91-11.63h-14c-2.5-5.58-8.06-9.16-14.17-9.14h-9.03c-6.72,0-13.17,2.6-18,7.27l-16-1.78c-.55-.06-1.05.34-1.11.89-.06.55.34,1.05.89,1.11,17.88,2,16.8,2,17.28,1.54,8.09-8.09,16.48-7,26-7,5.55-.02,10.54,3.36,12.58,8.52.36.88,0,.62,15.56.62,8,0,10.63,10.81,5.49,10.81h-31.09c-.55,0-1,.45-1,1s.45,1,1,1h31.12c2.6,0,5.11-.93,7.09-2.62,22.91-19.76,21.91-19.41,24.12-19.41,2.39,0,4.33,1.95,4.34,4.34,0,2.15-.89,4.21-2.46,5.68l-21.21,19.88c-3.2,3.01-7.43,4.69-11.83,4.68H1.15c-.55,0-1,.45-1,1s.45,1,1,1h76.9c4.9,0,9.63-1.86,13.2-5.22l21.21-19.88c1.97-1.86,3.08-4.44,3.09-7.14-.04-3.51-2.91-6.32-6.42-6.28-1.49.02-2.92.55-4.05,1.52Z"/>
    <path class="st0" d="M127.06,31.1c-17.88-2-16.8-2-17.28-1.54-8.1,8.09-16.48,7-26,7-5.55.02-10.54-3.36-12.58-8.52-.36-.88,0-.62-15.56-.62-8,0-10.63-10.81-5.49-10.81h31.07c.55,0,1-.45,1-1s-.45-1-1-1h-31.09c-2.62,0-5.15.93-7.13,2.64-22.91,19.68-21.89,19.33-24.11,19.33-2.39,0-4.33-1.95-4.34-4.34,0-2.15.89-4.2,2.45-5.68L38.22,6.68c3.2-3.01,7.43-4.69,11.83-4.68h76.95c.55,0,1-.45,1-1S127.55,0,127,0H50.05c-4.9,0-9.63,1.86-13.2,5.22L15.64,25.1c-1.97,1.85-3.08,4.44-3.09,7.14,0,3.5,2.86,6.33,6.36,6.32,1.5,0,2.95-.54,4.09-1.51,23.25-19.91,21.67-18.65,22.71-19.24-1.46,4.33,2.71,11.63,9.91,11.63h14c2.5,5.58,8.06,9.16,14.17,9.14h9.06c6.72,0,13.17-2.6,18-7.27l16,1.78c.55.06,1.04-.34,1.1-.89.06-.55-.34-1.04-.89-1.1h0Z"/>
    <path class="st0" d="M63.47,89.27c.31.18.69.18,1,0,1.1-.6,27-14.7,27-31.37-.1-14.49-18.78-20.9-27.47-9.09-8.79-11.81-27.47-5.41-27.47,9.09,0,16.67,25.84,30.77,26.94,31.37ZM63.09,51.12c.28.47.9.63,1.37.35.14-.09.26-.21.35-.35,6.92-11.54,24.56-6.52,24.56,6.78,0,14.3-21.9,27.34-25.42,29.34-3.53-2-25.42-15-25.42-29.34,0-13.3,17.64-18.32,24.56-6.78Z"/>
    <path class="st0" d="M76.14,50.77c3.94,0,7.12,3.19,7.13,7.13,0,.55.45,1,1,1,2.78,0,.1-10.13-8.13-10.13-.55,0-1,.45-1,1s.45,1,1,1Z"/>
  </g>
</svg>