<?xml version="1.0" encoding="UTF-8"?>
<svg id="Calque_1" xmlns="http://www.w3.org/2000/svg" version="1.1" viewBox="0 0 128 128">
  <!-- Generator: Adobe Illustrator 29.4.0, SVG Export Plug-In . SVG Version: 2.1.0 Build 152)  -->
  <defs>
    <style>
      .st0 {
        fill: #9a99ae;
        opacity: .3;
      }

      .st1 {
        stroke-miterlimit: 10;
        stroke-width: .5px;
      }

      .st1, .st2, .st3, .st4 {
        fill: #47566a;
        stroke: #47566a;
      }

      .st2 {
        stroke-miterlimit: 10;
        stroke-width: .5px;
      }

      .st3 {
        stroke-miterlimit: 10;
        stroke-width: .5px;
      }

      .st4 {
        stroke-miterlimit: 10;
        stroke-width: .5px;
      }
    </style>
  </defs>
  <circle class="st0" cx="64" cy="64" r="64"/>
  <g>
    <path class="st2" d="M67.44,111.2c-4.96,0-10.23-.73-14.1-2.08l.49-1.42c7.77,2.71,21.98,2.88,25.87-.67.77-.7,1.02-1.45.79-2.37-.69-2.83-3.62-3.24-8.73-3.72-4.59-.43-10.3-.97-15.56-4.4-8.7-5.69-15.88-.1-16.18.14l-14.22,8.97-.8-1.27,14.15-8.92s8.24-6.47,17.87-.17c4.95,3.23,10.45,3.75,14.88,4.17,4.87.46,9.07.85,10.05,4.85.35,1.45-.08,2.77-1.24,3.83-2.3,2.09-7.58,3.05-13.27,3.05h0Z"/>
    <path class="st2" d="M36.03,122.14l-.55-1.4c.35-.14,8.65-3.33,20.67-.85,11.54,2.4,21.37-2.18,27.77-5.84l2.05-1.17c5.13-2.91,18.76-10.63,18.98-12.82.1-.96-.18-1.74-.8-2.26-.88-.73-2.37-.89-3.97-.42-3.17.95-18.49,9.28-18.64,9.37l-.72-1.32c.64-.35,15.61-8.5,18.94-9.49,2.08-.62,4.09-.35,5.36.7,1.01.84,1.48,2.1,1.33,3.56-.25,2.47-7.43,7-19.74,13.97l-2.05,1.16c-6.6,3.77-16.78,8.5-28.81,6-11.56-2.39-19.73.74-19.81.77v.04Z"/>
  </g>
  <g>
    <path class="st2" d="M89.51,36.49h-.07c-2.36-.15-3.65-2.15-4.69-3.76l-.36-.55c-.56-.85-1.14-1.7-1.72-2.55-3.2-4.72-6.52-9.61-7.73-15.36l-.12-.57h.03c-.23-1.28-.37-2.95.18-4.53.56-1.61,2.05-3.27,4.11-3.35,1.68-.05,3.12.95,4.29,1.95,7.56,6.38,12.69,15.67,14.07,25.49h0l-.75.11.04.73c-.24.04-1.42.48-2.37.84-2.91,1.09-4.28,1.56-4.91,1.56h0ZM76.54,14.52c1.25,5.23,4.36,9.82,7.38,14.26.58.86,1.16,1.71,1.73,2.57l.37.57c.94,1.46,1.92,2.98,3.52,3.08.47,0,3-.96,4.36-1.47.94-.35,1.57-.59,2.01-.73-1.46-9.21-6.33-17.88-13.45-23.88-.95-.81-2.09-1.64-3.26-1.59-1.34.05-2.37,1.25-2.75,2.35-.39,1.12-.4,2.48-.01,4.28l.12.57h-.02Z"/>
    <path class="st2" d="M101.33,72.94c-.78,0-1.46-.25-1.99-.44-1.59-.57-3.31-1.98-3.3-3.71,0-.74.36-2.11,2.74-2.95.66-.24,1.33-.42,1.98-.6.84-.23,1.63-.45,2.42-.77.19-.08.39-.17.59-.26,1.14-.51,2.44-1.09,3.48-.57.52.26.87.75,1.03,1.45h0c.22,1-.18,2-.56,2.76-.97,1.9-2.47,3.48-4.22,4.44-.39.22-.99.52-1.67.62-.17.02-.33.04-.49.04h-.01ZM106.33,64.93c-.5,0-1.39.39-1.95.65-.22.1-.44.2-.64.28-.87.36-1.74.6-2.59.83-.65.18-1.26.35-1.87.56-.65.23-1.74.74-1.74,1.54s1.01,1.83,2.31,2.3c.66.24,1.2.42,1.76.33.33-.05.69-.19,1.15-.44,1.49-.82,2.77-2.18,3.61-3.81.24-.49.56-1.21.44-1.75-.04-.16-.11-.37-.24-.44-.06-.03-.15-.05-.24-.05h0Z"/>
    <path class="st2" d="M28.7,72.01c-.99,0-2.09-.27-3.34-.81-3.28-1.42-5.46-3.73-5.99-6.35-.24-1.19-.01-2.19.64-2.8,1.02-.98,2.5-.56,3.58-.26l.14.04c.8.22,1.85.12,2.86.03,1.31-.12,2.66-.25,3.75.25,2.84,1.28,2.05,6.33,1.86,7.33-.07.37-.17.8-.41,1.18-.26.42-.66.75-1.21,1-.57.26-1.19.39-1.87.39h-.01ZM21.67,62.93c-.26,0-.48.06-.63.2-.26.24-.33.78-.2,1.42.61,3.02,3.78,4.69,5.11,5.27,1.68.73,3.03.87,4,.43.28-.12.46-.27.56-.43.11-.17.17-.43.21-.66.37-1.94.4-5.06-1-5.69-.73-.33-1.83-.23-3-.12-1.15.11-2.34.22-3.41-.08l-.14-.04c-.51-.14-1.06-.3-1.5-.3Z"/>
    <path class="st2" d="M71.17,85.44c-1.08,0-2.12-.05-3.12-.14-6.28-.58-14.76-4.47-19.2-10.83-5.63,3.54-11.98,7.41-19.17,7.92-2.46.18-4.24-.5-5.04-1.91-.9-1.61-.3-3.72,1.64-5.79.39-.42.8-.82,1.21-1.23,1.63-1.63,3.18-3.17,3.68-5.19.6-2.39-.4-4.77-1.46-7.3-.4-.95-.81-1.92-1.13-2.91-1.71-5.28-.46-11.06,3.03-14.48-1.15-.67-2.34-1.59-3.06-2.9-.36-.65-.56-1.22-.64-1.77-.1-.73,0-1.52.32-2.4.64-1.86,1.92-3.42,3.51-4.28,1.77-.95,3.92-1.02,5.6-.16,1.62.83,2.68,2.38,3.53,3.64,3.9-2.57,9.43-3.28,15.06-1.88,5.44,1.35,10.27,4.52,14.28,7.45l1.17.86c2.68,1.98,5.44,4.02,8.52,5.2.19-1.07.6-2.11,1.26-3.16-9.46-4.61-17.46-13.44-21.49-23.78-.29-.76-.54-1.5-.47-2.32.15-1.7,1.61-2.83,2.99-3.2,1.35-.36,2.75-.15,4.06.13,10.77,2.28,20.64,9.15,26.55,18.43,3.06-1.31,6.86-1.25,9.86.17,3.15,1.48,5.68,3.89,8,6.23,2.83,2.86,5.64,6.32,5.1,10.37-.34,2.59-2.1,5.04-5.22,7.31-2.71,1.97-6.09,3.45-10.62,4.62-.7,2.43-2.42,6.11-3.15,7.62,2.1,1.02,4.33,1.76,6.63,2.2l.37.07c1.05.19,2.14.39,3.11.99,1.19.73,2.13,2.24,1.63,3.73-.37,1.1-1.36,1.72-2.18,2.15-5.04,2.63-11.17,2.61-16.11-.01-5.12,4.86-12.69,6.57-19.06,6.57v-.02ZM49.3,72.41l.4.63c4.05,6.32,12.37,10.2,18.49,10.77,6.66.61,15.78-.75,21.38-6.39l.41-.41.5.29c4.59,2.64,10.4,2.74,15.17.25.85-.44,1.29-.83,1.44-1.29.24-.71-.32-1.56-.99-1.97-.73-.45-1.64-.62-2.6-.79l-.38-.07c-2.69-.52-5.28-1.42-7.7-2.67l-.65-.34.33-.66s2.25-4.53,3.21-7.49h-5.09l5.89-1.48c4.56-1.14,7.91-2.57,10.55-4.49,2.78-2.01,4.33-4.13,4.62-6.29.45-3.4-2.11-6.52-4.68-9.11-2.22-2.24-4.64-4.55-7.58-5.93-2.81-1.33-6.4-1.29-9.16.1l-.62.31-.36-.59c-5.65-9.22-15.35-16.07-25.94-18.32-1.3-.28-2.38-.41-3.36-.15-.84.22-1.79.91-1.88,1.88-.04.5.14,1.04.37,1.65,4.01,10.28,12.05,19,21.51,23.33l.83.38-.54.74c-1.02,1.41-1.51,2.67-1.59,4.09l-.05.98-.93-.3c-3.66-1.19-6.79-3.5-9.81-5.73l-1.17-.86c-3.89-2.84-8.57-5.92-13.76-7.21-4.36-1.08-10.5-1.05-14.68,2.26-.04.03-.08.07-.12.09l-.88-1.21c-.12.11-.15.27-.14.33,0-.02-.03-.08-.07-.15-.81-1.2-1.71-2.55-3.01-3.21-1.26-.64-2.87-.58-4.21.14-1.27.68-2.29,1.94-2.81,3.45-.23.65-.31,1.23-.25,1.72.05.36.2.77.46,1.24.73,1.33,2.19,2.2,3.38,2.8l1.03.53-.91.73c-3.63,2.9-5.01,8.49-3.37,13.58.3.92.7,1.87,1.08,2.79,1.11,2.64,2.25,5.37,1.53,8.24-.6,2.42-2.37,4.18-4.08,5.89-.4.4-.8.79-1.18,1.2-.54.57-2.24,2.56-1.42,4.03.66,1.18,2.55,1.23,3.62,1.15,7.08-.5,13.46-4.53,19.1-8.08l.63-.4.04.02Z"/>
  </g>
  <g>
    <rect class="st3" x="25.72" y="18.8" width="1.5" height="4.55" transform="translate(-6.81 14.94) rotate(-28.09)"/>
    <rect class="st1" x="35.79" y="15.78" width="1.5" height="4.55" transform="translate(-1.98 4.73) rotate(-7.21)"/>
    <rect class="st4" x="17.61" y="25.49" width="1.5" height="4.54" transform="translate(-14.62 23.3) rotate(-48.83)"/>
  </g>
</svg>