<?xml version="1.0" encoding="UTF-8"?>
<svg id="Calque_1" xmlns="http://www.w3.org/2000/svg" version="1.1" viewBox="0 0 128 128">
  <!-- Generator: Adobe Illustrator 29.4.0, SVG Export Plug-In . SVG Version: 2.1.0 Build 152)  -->
  <defs>
    <style>
      .st0 {
        fill: #47566a;
      }

      .st1 {
        fill: #fff4e2;
      }
    </style>
  </defs>
  <circle class="st1" cx="64" cy="64" r="64"/>
  <g id="Brain_Head">
    <path class="st0" d="M112.59,68.12l-7.27-10.12c-.96-1.35-1.09-3.13-.32-4.6.9-1.81.68-2.93.68-8.71C105.65,21.62,87.79,0,59.12,0,34.43.06,14.4,20,14.23,44.69c0,9,.86,17.05,4.9,26.73,3.7,8.67,5.37,18.08,4.87,27.5-.65,12.08-1.4,27.87-1.41,28-.03.55.4,1.02.95,1.05.55.03,1.02-.4,1.05-.95,1.27-28.25,3.57-39.12-3.49-56.02-4.1-9.82-4.9-17.46-4.87-26.3.16-23.59,19.3-42.64,42.89-42.7,27.25,0,44.53,20.43,44.53,42.69,0,6,.15,6.57-.47,7.81-1.07,2.13-.87,4.68.52,6.61l7.3,10.17c1.4,1.96.94,4.67-1.02,6.07-.5.36-1.07.6-1.66.72l-5.86,1.18c-.48.09-.82.51-.81,1,0,6.56-.06,6.3.17,6.65.59.89,1.22,1.83.49,3.18-.45.85-1.35,1.37-2.31,1.34h-7.55c-.55,0-1,.45-1,1s.45,1,1,1h5.61c1.42,0,2.57,1.16,2.57,2.57,0,.68-.27,1.33-.76,1.82-.4.41-.29.35-.29,6.52,0,6.34-5.14,11.47-11.48,11.48-2.14,0-2.19-.17-15.7-4-.53-.15-1.08.16-1.23.69-.03.1-.04.2-.04.31v16.19c0,.55.45,1,1,1s1-.45,1-1v-14.93c11.4,3.26,12.36,3.74,15,3.74,7.44-.01,13.47-6.04,13.48-13.48v-5.43c1.38-1.68,1.38-4.09,0-5.77,2.36-.9,3.55-3.55,2.65-5.91-.12-.32-.28-.62-.47-.91-.28-.41-.2.44-.2-5.26l5.06-1c3.44-.67,5.68-4.01,5.01-7.45-.18-.89-.54-1.74-1.07-2.48Z"/>
    <path class="st0" d="M70.16,29.48c2.44,0,5.63-2.42,6.07-6,.07-.55-.32-1.06-.88-1.12s-1.06.32-1.12.88c-.26,2.22-2.01,3.98-4.23,4.25-.55.04-.96.53-.92,1.08s.53.96,1.08.92Z"/>
    <path class="st0" d="M76.78,46.38c14.74,2.79,24.73-11.56,14.59-20.16.47-5.01-3.21-9.45-8.22-9.92-.47-.04-.95-.05-1.42-.02-2.07-3.18-5.91-4.72-9.6-3.85-2.03-3.92-6.86-5.46-10.78-3.43-.5.26-.97.57-1.41.93-3.22-2.62-7.91-2.36-10.82.6-3.64-1.15-7.59.43-9.43,3.78-4.44-.6-8.53,2.5-9.13,6.94-.06.45-.09.91-.07,1.37-4.33,1.1-6.94,5.51-5.84,9.84.25.99.69,1.92,1.29,2.75-2.43,3.07-1.92,7.53,1.15,9.96.99.79,2.18,1.3,3.44,1.47-.6,7.27,4.8,13.64,12.06,14.25.54.04,1.08.06,1.62.03-1.65,16.37-1.7,15.47-1.27,15.94s.39.33,6.83.33c.49,0,.92-.34,1-.83,0-.24,4.09-23.55,17.3-23.55,4,0,7.53-2.61,8.71-6.43ZM68.06,50.81c-13.53,0-18.24,19.94-19.12,24.38h-4.16c1.68-16.64,1.67-15.51,1.35-15.95-.49-.7-1-.3-2.45-.3-11.15,0-15.38-14.72-6-20.66.47-.3.61-.91.31-1.38-.3-.47-.91-.61-1.38-.31-2.9,1.83-4.96,4.73-5.76,8.06-2.78-.35-4.74-2.89-4.39-5.67.14-1.13.67-2.18,1.48-2.98,0,0,.22-.31.23-.32s.09-.35.09-.37-.06-.36-.06-.38-.2-.33-.21-.34c-2.28-2.48-2.13-6.34.35-8.62.94-.87,2.13-1.42,3.4-1.57.54-.09.91-.61.82-1.15,0,0,0,0,0,0-.49-3.34,1.82-6.44,5.15-6.93.28-.04.56-.06.85-.07,1.31,0,1.64.43,2.22,0,.13-.1.24-.23.32-.38,2.63-6.05,11.7-4.15,11.7,2.44,0,.55.45,1,1,1s1-.45,1-1c.01-2.77-1.41-5.35-3.76-6.82,1.07-.86,2.4-1.32,3.77-1.32,3.47,0,4.16,2.32,5.26,2.12.13,0,.26-.06.36-.15.06-.03.11-.06.16-.09,2.34-2.4,6.18-2.46,8.58-.12.62.6,1.1,1.32,1.42,2.12.2.51.77.77,1.28.58,3.22-1.07,6.76.3,8.41,3.27.2.35.6.54,1,.49,3.9-.51,7.48,2.24,7.99,6.15s-2.24,7.48-6.15,7.99c-.3.04-.61.06-.92.06-.55,0-1,.45-1,1s.45,1,1,1c3.83-.01,7.25-2.41,8.58-6,7.43,7.42-1.65,18.11-13.63,15.84.65-8.73-10.1-11.75-10.1-8.87,0,.55.45,1,1,1,3.94,0,7.13,3.2,7.13,7.13,0,3.93-3.19,7.12-7.13,7.13Z"/>
    <path class="st0" d="M62,28.45c-.55,0-1,.45-1,1,0,2.76-4.66,5.1-10.18,5.1s-10.18-2.34-10.18-5.1c0-.55-.45-1-1-1-2.7,0-.53,8.25,11.48,8.09-2.28,8.47,8.83,12.25,8.83,9.17,0-.55-.45-1-1-1-3.37,0-6.1-2.73-6.1-6.1,0-.75.14-1.5.41-2.2,9.96-1.14,10.97-7.96,8.74-7.96Z"/>
    <path class="st0" d="M62,20.32c-3.92,0-7.09,3.18-7.1,7.1,0,.55.45,1,1,1s1-.45,1-1c0-2.81,2.29-5.09,5.1-5.1.55,0,1-.45,1-1s-.45-1-1-1Z"/>
    <path class="st0" d="M45.71,50.81c-2.81,0-5.09-2.29-5.1-5.1,0-.55-.45-1-1-1-2.57,0-.33,8.1,6.1,8.1.55,0,1-.45,1-1s-.45-1-1-1Z"/>
  </g>
</svg>