<?xml version="1.0" encoding="UTF-8"?>
<svg id="Calque_1" xmlns="http://www.w3.org/2000/svg" version="1.1" viewBox="0 0 128 128">
  <!-- Generator: Adobe Illustrator 29.4.0, SVG Export Plug-In . SVG Version: 2.1.0 Build 152)  -->
  <defs>
    <style>
      .st0 {
        fill: none;
        stroke: #47566a;
        stroke-miterlimit: 10;
        stroke-width: 2px;
      }

      .st1 {
        fill: #9a99ae;
        opacity: .3;
      }
    </style>
  </defs>
  <circle class="st1" cx="64" cy="64" r="64"/>
  <g>
    <path class="st0" d="M43.87,12.6s2.81-2.04,6.31-3.31c5.24-2.04,19.54-7.26,33.59,3.42l12.14,17.74,8.32-4.8-8.95,28.16-28.86-6.33,8.77-5.07-7.63-13.21s-7.51-15.36-23.69-16.6"/>
    <path class="st0" d="M43.87,12.6c-2.06,2.09-12.24,18.32-12.24,18.32l20.5,11.94,11.68-19.22s-6.96-9.82-19.94-11.04Z"/>
  </g>
  <g>
    <path class="st0" d="M27.29,110.62s-3.18-1.41-6.02-3.81c-4.39-3.51-16.06-13.29-13.83-30.8l9.3-19.38-8.32-4.8,28.86-6.33,8.95,28.16-8.77-5.07-7.63,13.21s-9.54,14.18-2.54,28.81"/>
    <path class="st0" d="M27.29,110.62c2.84.74,21.99,1.44,21.99,1.44l.09-23.72-22.49-.51s-5.02,10.93.41,22.79Z"/>
  </g>
  <g>
    <path class="st0" d="M120.74,76.06s.36,3.46-.29,7.12c-.85,5.56-3.48,20.55-19.75,27.38l-21.43,1.64v9.6l-19.91-21.83,19.91-21.83v10.13h15.25s17.06,1.17,26.22-12.21"/>
    <path class="st0" d="M120.74,76.06c-.78-2.82-9.75-19.76-9.75-19.76l-20.59,11.79,10.8,19.73s11.98-1.12,19.53-11.75h.01Z"/>
  </g>
</svg>