<?xml version="1.0" encoding="UTF-8"?>
<svg id="Female_Psycolog" xmlns="http://www.w3.org/2000/svg" version="1.1" viewBox="0 0 128 128">
  <!-- Generator: Adobe Illustrator 29.4.0, SVG Export Plug-In . SVG Version: 2.1.0 Build 152)  -->
  <defs>
    <style>
      .st0 {
        fill: #47566a;
      }

      .st1 {
        fill: #9a99ae;
        opacity: .3;
      }
    </style>
  </defs>
  <circle class="st1" cx="63.99" cy="64.01" r="64"/>
  <path class="st0" d="M58.86,60.89c.39-.39.39-1.03,0-1.42s-1.03-.39-1.42,0c-1.99,1.99-5.22,1.99-7.21,0-.39-.39-1.03-.39-1.41,0-.39.39-.39,1.03,0,1.41,2.77,2.77,7.27,2.77,10.04,0h0Z"/>
  <path class="st0" d="M121.18,96.19c-5.64-9.94-18.11-13.67-28.28-8.47-8.46-10.06-18.05-8.5-6.55-8.5.55,0,1-.45,1-1V25.39C87.33,11.39,76,.04,62,0h-16.64c-3.83,0-7.5,1.49-10.28,4.12-8.51,1.37-14.76,8.72-14.76,17.34v56.76c0,.55.45,1,1,1h5.27c-9.69,3.76-16.66,12.36-18.34,22.61l-4.17,25c-.09.55.28,1.07.83,1.17.55.09,1.07-.28,1.17-.83l4.17-25c2.08-12.71,12.76-22.24,25.62-22.87-7.77,11.33-7.57,10.76-7.38,11.41s-.49.18,13.82,6.3l-3.59,7.18c-.2.41-.1.9.24,1.2l13.88,11.9v9.72c0,.55.45,1,1,1s1-.45,1-1v-9.7l13.87-11.9c.35-.3.45-.79.25-1.2l-3.59-7.2c14.34-6.13,13.63-5.66,13.81-6.3s.4-.07-7.39-11.44c7.48.37,14.47,3.8,19.35,9.47-9.92,6.33-12.84,19.5-6.51,29.43,6.33,9.92,19.5,12.84,29.43,6.51,9.56-6.1,12.67-18.61,7.08-28.47h.04v-.02ZM85.35,77.19h-22.35v-5.8c8.72-3.41,14.87-11.33,16-20.62,2.14,0,4.2,0,6.31-2.17l.04,28.59ZM53.84,95.85l-7.13-17.85v-5.88c4.62,1.32,9.51,1.32,14.13,0,.19-.06.13-.62.13,5.89,0,0-7.13,17.84-7.13,17.84ZM28.45,48.77h-1c-2.81.12-5.2-2.06-5.32-4.87-.12-2.81,2.06-5.2,4.87-5.32h1.45v10.19ZM79.22,38.58h1c2.81.12,4.99,2.51,4.87,5.32-.12,2.64-2.23,4.75-4.87,4.87h-1v-10.19ZM72.05,36.58c-2.23-3.89-7.18-5.23-11.07-3.01-1.55.89-2.76,2.26-3.45,3.91-2.31-1.23-5.07-1.23-7.38,0-1.73-4.13-6.48-6.08-10.61-4.35-1.65.69-3.02,1.9-3.91,3.45-.24,0,.39,0-4.41,0,3-4.91,5.25-9.36,5.33-16.53,2.75,2.76,6.49,4.31,10.39,4.31h17.06c6.91,0,12.65,5.33,13.17,12.22-6.17,0-4.86,0-5.12.02,0,0,0-.02,0-.02ZM65.05,34.5c3.37,0,6.11,2.75,6.1,6.12s-2.75,6.11-6.12,6.1c-3.37,0-6.1-2.74-6.1-6.11.02-3.35,2.72-6.06,6.07-6.09,0,0,.05-.02.05-.02ZM42.69,34.5c3.37,0,6.11,2.74,6.11,6.11s-2.74,6.11-6.11,6.11-6.11-2.74-6.11-6.11c.02-3.35,2.73-6.07,6.08-6.09,0,0,.03-.02.03-.02ZM30.45,38.58h4.37c-1.14,4.33,1.44,8.77,5.78,9.91s8.77-1.44,9.91-5.78c.25-.94.32-1.92.23-2.89.35-1.64,5.86-1.64,6.21,0-.44,4.46,2.81,8.43,7.27,8.87,4.46.44,8.43-2.81,8.87-7.27.09-.95.02-1.91-.22-2.84h4.36v9.16c0,20.84-25.29,31.19-39.93,16.55-8.05-8.05-6.84-16.67-6.84-25.71h0ZM22.32,21.46c0-7.75,5.7-14.32,13.37-15.4.21-.03.41-.14.56-.29,2.42-2.4,5.7-3.76,9.11-3.77h16.64c12.9.03,23.34,10.49,23.35,23.39v13.36c-2.07-2.14-4.26-2.17-6.18-2.17-.53-7.99-7.16-14.21-15.17-14.22h-17.06c-4.25,0-8.21-2.12-10.56-5.66-.31-.46-.93-.58-1.39-.27-.28.19-.44.5-.44.83,0,10-1.62,12.58-5.66,19.32-1.93,0-4.3-.18-6.57,2.17,0,0,0-17.29,0-17.29ZM22.32,77.22v-28.62c2.09,2.17,4.29,2.17,6.32,2.17,1.1,9.34,7.29,17.3,16.07,20.67v5.78s-22.39,0-22.39,0ZM40.86,104.39c4-8,4-7.65,3.76-8.22s.64-.07-13.62-6.17l7.37-10.76h6.63l7.81,19.52v15.92s-11.95-10.29-11.95-10.29ZM63.61,95.6c-.51.21-.76.79-.56,1.3,0,.03.03.07.05.1l3.72,7.43-12,10.27v-15.96l7.8-19.52h6.7l7.39,10.78-13.1,5.6ZM112.11,123.5c-9.29,5.24-21.08,1.96-26.32-7.33s-1.96-21.08,7.33-26.32,21.08-1.96,26.32,7.33h0c5.24,9.29,1.96,21.07-7.33,26.32Z"/>
  <path class="st0" d="M114.28,97.89l-15.76,15.76-7.6-7.59c-.36-.25-.86-.17-1.12.2-.2.28-.19.66.01.93,8.64,8.66,8.23,8.41,8.71,8.41s-.84,1.17,16.87-16.57c.27-.35.2-.86-.15-1.13-.28-.22-.68-.22-.96,0h0Z"/>
</svg>