<?xml version="1.0" encoding="UTF-8"?>
<svg id="Calque_1" xmlns="http://www.w3.org/2000/svg" version="1.1" viewBox="0 0 128 128">
  <!-- Generator: Adobe Illustrator 29.4.0, SVG Export Plug-In . SVG Version: 2.1.0 Build 152)  -->
  <defs>
    <style>
      .st0 {
        fill: #eef2f3;
        isolation: isolate;
      }

      .st1 {
        fill: #47566a;
      }
    </style>
  </defs>
  <circle class="st0" cx="64" cy="64" r="64"/>
  <g id="Insomnia">
    <path class="st1" d="M112.59,68.12l-7.27-10.12c-.96-1.35-1.09-3.13-.32-4.6.9-1.81.68-2.93.68-8.71C105.65,21.62,87.79,0,59.12,0,34.43.06,14.4,20,14.23,44.69c0,9,.85,17,4.9,26.73,3.7,8.67,5.37,18.08,4.87,27.5-.65,12.08-1.4,27.87-1.41,28-.03.55.4,1.02.95,1.05.55.03,1.02-.4,1.05-.95,0-.16.76-16,1.41-28,.5-9.59-1.17-19.17-4.9-28.02-4-9.52-4.9-17.15-4.87-26.27.15-23.6,19.29-42.67,42.89-42.73,27.25,0,44.53,20.44,44.53,42.69,0,6,.15,6.57-.47,7.81-1.07,2.13-.87,4.68.52,6.61l7.3,10.17c1.4,1.96.94,4.67-1.02,6.07-.5.36-1.07.6-1.66.72l-5.86,1.18c-.48.09-.82.51-.81,1,0,6.56-.06,6.3.17,6.65.59.89,1.22,1.83.49,3.18-.45.85-1.35,1.37-2.31,1.34h-7.55c-.55,0-1,.45-1,1s.45,1,1,1h5.61c1.42,0,2.57,1.16,2.57,2.57,0,.68-.27,1.33-.76,1.82-.4.41-.29.35-.29,6.52,0,6.34-5.14,11.47-11.48,11.48-2.14,0-2.19-.17-15.7-4-.53-.15-1.08.16-1.23.69-.03.1-.04.2-.04.31v16.19c0,.55.45,1,1,1s1-.45,1-1v-14.93c11.4,3.26,12.36,3.74,15,3.74,7.44-.01,13.47-6.04,13.48-13.48v-5.43c1.38-1.68,1.38-4.09,0-5.77,2.36-.9,3.55-3.55,2.65-5.91-.12-.32-.28-.62-.47-.91-.28-.41-.2.44-.2-5.26l5.06-1c3.44-.67,5.68-4.01,5.01-7.45-.18-.89-.54-1.74-1.07-2.48Z"/>
    <path class="st1" d="M87.35,50.16l4.39,4.39c.39.39,1.03.39,1.42,0s.39-1.03,0-1.42l-6.1-6.13c-.39-.39-1.02-.39-1.41,0l-6.1,6.09c-.4.4-.41,1.05,0,1.46s1.05.41,1.46,0h0l4.39-4.39v1.65c0,16.28-13.21,29.48-29.49,29.47-16.28,0-29.48-13.21-29.47-29.49,0-16.26,13.18-29.45,29.44-29.47.55,0,1-.45,1-1s-.45-1-1-1c-17.4,0-31.5,14.1-31.5,31.5s14.1,31.5,31.5,31.5c16.07-.03,31.48-12.32,31.48-33.16Z"/>
    <path class="st1" d="M56.87,27.42c0-.55-.45-1-1-1s-1,.45-1,1v4.06c0,.55.45,1,1,1s1-.45,1-1v-4.06Z"/>
    <path class="st1" d="M54.87,72.13v4.06c0,.55.45,1,1,1s1-.45,1-1v-4.06c0-.55-.45-1-1-1s-1,.45-1,1Z"/>
    <path class="st1" d="M35.55,50.81h-4.07c-.55,0-1,.45-1,1s.45,1,1,1h4.07c.55,0,1-.45,1-1s-.45-1-1-1Z"/>
    <path class="st1" d="M55.87,63h-6.26l7.09-10.64c.3-.46.18-1.08-.29-1.39-.16-.11-.35-.16-.54-.16h-8.13c-.55,0-1,.45-1,1s.45,1,1,1h6.26c-7.57,11.35-7.54,10.92-7.14,11.66s.12.53,9,.53c.55,0,1-.44,1.01-1,0-.55-.44-1-1-1Z"/>
    <path class="st1" d="M71,35.08c-.38-.72-.12-.53-9-.53-.55,0-1,.45-1,1s.45,1,1,1h6.26l-7.12,10.64c-.3.46-.18,1.08.28,1.39.17.11.37.17.58.16h8.1c.55,0,1-.45,1-1s-.45-1-1-1h-6.26c7.57-11.36,7.53-10.92,7.16-11.66Z"/>
    <path class="st1" d="M85.2,18.82c-.38-.72-.12-.53-9-.53-.55,0-1,.45-1,1s.45,1,1,1h6.26l-7.1,10.64c-.3.46-.18,1.08.29,1.39.16.11.35.16.54.16h8.13c.55,0,1-.45,1-1s-.45-1-1-1h-6.26c7.57-11.35,7.54-10.92,7.14-11.66Z"/>
    <path class="st1" d="M45,29.94c-.41-.72-1.33-.96-2.05-.55s-.96,1.33-.55,2.05,1.33.96,2.05.55.96-1.33.55-2.05Z"/>
    <path class="st1" d="M67.31,71.63c-.72.41-.96,1.33-.55,2.05.41.72,1.33.96,2.05.55h0c.72-.41.96-1.33.55-2.05-.41-.72-1.33-.96-2.05-.55Z"/>
    <path class="st1" d="M44.43,71.63c-.72-.41-1.64-.17-2.05.55-.41.72-.17,1.64.55,2.05s1.64.17,2.05-.55c.41-.72.17-1.64-.55-2.05Z"/>
    <path class="st1" d="M34,62.7c-.72.41-.96,1.33-.55,2.05.41.72,1.33.96,2.05.55s.96-1.33.55-2.05c-.41-.72-1.33-.96-2.05-.55Z"/>
    <path class="st1" d="M75.69,63.25c-.41.72-.17,1.64.55,2.05.72.41,1.64.17,2.05-.55s.17-1.64-.55-2.05c-.72-.41-1.64-.17-2.05.55Z"/>
    <path class="st1" d="M36.05,40.36c.41-.72.17-1.64-.55-2.05s-1.64-.17-2.05.55-.17,1.64.55,2.05,1.64.17,2.05-.55Z"/>
  </g>
</svg>