<?xml version="1.0" encoding="UTF-8"?>
<svg id="Calque_1" xmlns="http://www.w3.org/2000/svg" version="1.1" viewBox="0 0 128 128">
  <!-- Generator: Adobe Illustrator 29.4.0, SVG Export Plug-In . SVG Version: 2.1.0 Build 152)  -->
  <defs>
    <style>
      .st0 {
        fill: #eef2f3;
        isolation: isolate;
      }

      .st1 {
        fill: #47566a;
      }
    </style>
  </defs>
  <circle class="st0" cx="64" cy="64" r="64"/>
  <g id="Relax">
    <path class="st1" d="M112.59,68.12l-7.27-10.12c-.96-1.35-1.09-3.13-.32-4.6.9-1.81.68-2.93.68-8.71C105.65,21.62,87.79,0,59.12,0,34.43.06,14.4,20,14.23,44.69c0,9,.86,17.05,4.9,26.73,3.7,8.67,5.37,18.08,4.87,27.5-.65,12.08-1.4,27.87-1.41,28-.03.55.4,1.02.95,1.05.55.03,1.02-.4,1.05-.95,1.27-28.25,3.57-39.12-3.49-56.02-4.1-9.82-4.9-17.46-4.87-26.3.16-23.59,19.3-42.64,42.89-42.7,27.25,0,44.53,20.43,44.53,42.69,0,6,.15,6.57-.47,7.81-1.07,2.13-.87,4.68.52,6.61l7.3,10.17c1.4,1.96.94,4.67-1.02,6.07-.5.36-1.07.6-1.66.72l-5.86,1.18c-.48.09-.82.51-.81,1,0,6.56-.06,6.3.17,6.65.59.89,1.22,1.83.49,3.18-.45.85-1.35,1.37-2.31,1.34h-7.55c-.55,0-1,.45-1,1s.45,1,1,1h5.61c1.42,0,2.57,1.16,2.57,2.57,0,.68-.27,1.33-.76,1.82-.4.41-.29.35-.29,6.52,0,6.34-5.14,11.47-11.48,11.48-2.14,0-2.19-.17-15.7-4-.53-.15-1.08.16-1.23.69-.03.1-.04.2-.04.31v16.19c0,.55.45,1,1,1s1-.45,1-1v-14.93c11.4,3.26,12.36,3.74,15,3.74,7.44-.01,13.47-6.04,13.48-13.48v-5.43c1.38-1.68,1.38-4.09,0-5.77,2.36-.9,3.55-3.55,2.65-5.91-.12-.32-.28-.62-.47-.91-.28-.41-.2.44-.2-5.26l5.06-1c3.44-.67,5.68-4.01,5.01-7.45-.18-.89-.54-1.74-1.07-2.48Z"/>
    <path class="st1" d="M93.16,52.51c.39-.39.39-1.02,0-1.41-3.96-3.99-9.2-6.44-14.8-6.94,3.61-4.3,5.58-9.73,5.56-15.34,0-.55-.45-1-1-1-5.61-.01-11.05,1.96-15.35,5.57-.49-5.6-2.94-10.85-6.93-14.81-.39-.39-1.02-.39-1.41,0-3.98,3.97-6.42,9.22-6.91,14.82-4.29-3.6-9.72-5.58-15.32-5.58-.55,0-1,.45-1,1-.02,5.61,1.95,11.04,5.56,15.34-5.6.5-10.84,2.95-14.8,6.94-.39.39-.39,1.02,0,1.41,9.1,9.1,23.76,9.4,33.23.68,9.44,8.72,24.09,8.42,33.17-.68ZM62.41,52.68c5.33-.54,10.32-2.87,14.16-6.6,5.35.07,10.49,2.11,14.43,5.73-8.01,7.32-20.15,7.69-28.59.87ZM62.3,50.68c3.39-4.15,5.28-9.32,5.36-14.68,3.83-3.73,8.9-5.92,14.24-6.15-.52,10.82-8.83,19.65-19.6,20.82h0ZM59.94,20.74c7.64,8.39,7.64,21.23,0,29.62-7.64-8.39-7.64-21.23,0-29.62ZM52.24,36c.09,5.34,1.97,10.49,5.33,14.64-10.75-1.18-19.04-9.99-19.57-20.79,5.34.23,10.41,2.42,14.24,6.15ZM28.87,51.81c3.94-3.62,9.08-5.66,14.43-5.73,3.84,3.73,8.83,6.06,14.16,6.6-8.44,6.82-20.58,6.45-28.59-.87Z"/>
  </g>
</svg>