<?xml version="1.0" encoding="UTF-8"?>
<svg id="Calque_1" xmlns="http://www.w3.org/2000/svg" version="1.1" viewBox="0 0 128 128">
  <!-- Generator: Adobe Illustrator 29.4.0, SVG Export Plug-In . SVG Version: 2.1.0 Build 152)  -->
  <defs>
    <style>
      .st0 {
        fill: #47566a;
      }

      .st1 {
        fill: #fff4e2;
      }
    </style>
  </defs>
  <circle class="st1" cx="64" cy="64" r="64"/>
  <g id="Selfcare">
    <path class="st0" d="M75.08,89.39c3.22,0,5.83,2.61,5.84,5.83,0,.55.45,1,1,1,2.66,0,.23-8.83-6.84-8.83-.55,0-1,.45-1,1s.45,1,1,1Z"/>
    <path class="st0" d="M68.06,58.94h-8.12c-.55,0-1,.45-1,1s.45,1,1,1h8.12c.55,0,1-.45,1-1s-.45-1-1-1Z"/>
    <path class="st0" d="M76.19,69.1h-3.69c6.59-3.24,10.78-9.94,10.79-17.29v-12.2c0-10.65-8.64-19.29-19.29-19.29s-19.29,8.64-19.29,19.29v12.2c.01,7.35,4.2,14.05,10.79,17.29h-3.69c-11.77.01-21.31,9.55-21.33,21.32v18.29c.01,5.04,4.09,9.12,9.13,9.13h1v9.16c0,.55.45,1,1,1s1-.45,1-1v-9.16h11.81c2.89,2.2,5.93,4.21,9.1,6,.31.18.69.18,1,0,3.17-1.79,6.21-3.8,9.1-6h11.73v9.16c0,.55.45,1,1,1s1-.45,1-1v-9.16h1c5.04-.01,9.12-4.09,9.13-9.13v-18.29c-.02-11.76-9.53-21.29-21.29-21.32ZM46.71,51.81v-12.2c0-9.55,7.74-17.29,17.29-17.29s17.29,7.74,17.29,17.29v12.2c0,9.55-7.74,17.29-17.29,17.29s-17.29-7.74-17.29-17.29ZM64,121.81c-2.35-1.35-4.63-2.82-6.83-4.41,6.14-2.54,4.3-11.7-2.32-11.7h-9.94c-13.17-18.31,10.19-30.06,18.23-16.6.28.47.9.63,1.37.35.14-.09.26-.21.35-.35,8.07-13.51,31.39-1.69,18.23,16.58h-9.94c-6.62,0-8.46,9.16-2.32,11.7-2.2,1.59-4.48,3.06-6.83,4.41v.02ZM95.52,108.73c0,3.94-3.19,7.12-7.13,7.13h-15.24c-2.25,0-4.08-1.82-4.08-4.08,0-2.25,1.82-4.08,4.08-4.08h15.25c.55,0,1-.45,1-1s-.45-1-1-1h-2.86c12.38-19.02-11.21-32.48-21.53-18.89-10.36-13.64-33.91-.13-21.53,18.87h-2.86c-.55,0-1,.45-1,1s.45,1,1,1h15.24c2.25,0,4.08,1.82,4.08,4.08,0,2.25-1.82,4.08-4.08,4.08h-15.25c-3.94,0-7.12-3.19-7.13-7.13v-18.29c.01-10.67,8.66-19.31,19.33-19.32h24.38c10.67,0,19.32,8.65,19.33,19.32v18.31Z"/>
    <path class="st0" d="M9.13,63H1c-.55,0-1,.45-1,1s.45,1,1,1h8.13c.55,0,1-.45,1-1s-.45-1-1-1Z"/>
    <path class="st0" d="M127,63h-8.13c-.55,0-1,.45-1,1s.45,1,1,1h8.13c.55,0,1-.45,1-1s-.45-1-1-1Z"/>
    <path class="st0" d="M16,90.57l-7,4.06c-.48.28-.65.89-.37,1.37.28.48.89.65,1.37.37l7-4.07c.47-.3.6-.91.31-1.38-.28-.44-.85-.59-1.31-.35Z"/>
    <path class="st0" d="M111.52,37.56c.38,0-.1.22,7.54-4.19.48-.28.65-.89.37-1.37-.28-.48-.89-.65-1.37-.37l-7,4.07c-.48.28-.63.89-.35,1.37.17.29.48.47.81.49Z"/>
    <path class="st0" d="M119.06,94.63l-7-4.06c-.49-.26-1.09-.07-1.35.42-.24.46-.09,1.03.35,1.31l7,4.07c.48.28,1.09.11,1.37-.37s.11-1.09-.37-1.37Z"/>
    <path class="st0" d="M17,35.7l-7-4.07c-.48-.28-1.09-.11-1.37.37-.28.48-.11,1.09.37,1.37l7,4.06c.49.26,1.09.07,1.35-.42.24-.46.09-1.03-.35-1.31Z"/>
    <path class="st0" d="M35.7,17c.3.47.91.6,1.38.31.44-.28.59-.85.35-1.31l-4.06-7c-.28-.48-.89-.65-1.37-.37s-.65.89-.37,1.37h0l4.07,7Z"/>
    <path class="st0" d="M92.3,17l4.07-7c.28-.48.11-1.09-.37-1.37-.48-.28-1.09-.11-1.37.37l-4.06,7c-.26.49-.07,1.09.42,1.35.46.24,1.03.09,1.31-.35Z"/>
    <path class="st0" d="M65,9.13V1C65,.45,64.55,0,64,0s-1,.45-1,1v8.13c0,.55.45,1,1,1s1-.45,1-1Z"/>
  </g>
</svg>