<?xml version="1.0" encoding="UTF-8"?>
<svg id="Calque_1" xmlns="http://www.w3.org/2000/svg" version="1.1" viewBox="0 0 128 128">
  <!-- Generator: Adobe Illustrator 29.4.0, SVG Export Plug-In . SVG Version: 2.1.0 Build 152)  -->
  <defs>
    <style>
      .st0 {
        fill: #eef2f3;
        isolation: isolate;
      }

      .st1 {
        fill: #47566a;
      }
    </style>
  </defs>
  <circle class="st0" cx="64" cy="64" r="64"/>
  <g id="Sleep">
    <path class="st1" d="M122.94,101.61h-21.36v-7.13c-.01-8.3-4.83-15.83-12.36-19.32h11.36c5.04,0,9.13-4.09,9.13-9.13,0-.01,0-.02,0-.03v-26.39c0-.55-.45-1-1-1s-1,.45-1,1v26.39c0,3.94-3.19,7.12-7.13,7.13h-28.08c6.58-3.23,10.77-9.92,10.79-17.26v-12.19c0-10.65-8.64-19.29-19.29-19.29s-19.29,8.64-19.29,19.29v12.19c.01,7.35,4.2,14.05,10.79,17.29h-28.08c-3.94,0-7.14-3.21-7.13-7.15,0,0,0,0,0-.01V21.32c0-3.94,3.19-7.12,7.13-7.13h71.13c.55,0,1-.45,1-1s-.45-1-1-1H27.42c-5.04.01-9.12,4.09-9.13,9.13v44.68c0,5.04,4.09,9.12,9.13,9.13h11.36c-7.54,3.49-12.36,11.04-12.36,19.35v7.13H5.06c-2.8,0-5.06,2.27-5.06,5.07v20.32c0,.55.45,1,1,1s1-.45,1-1v-11.19h124v11.19c0,.55.45,1,1,1s1-.45,1-1v-20.32c0-2.8-2.26-5.06-5.06-5.07ZM46.71,55.87v-12.19c0-9.55,7.74-17.29,17.29-17.29s17.29,7.74,17.29,17.29v12.19c0,9.55-7.74,17.29-17.29,17.29s-17.29-7.74-17.29-17.29ZM28.42,94.48c.02-10.66,8.66-19.3,19.32-19.32h32.52c10.66.02,19.3,8.66,19.32,19.32v7.13h-12.23v-9.16c0-.55-.45-1-1-1s-1,.45-1,1v9.16h-42.7v-9.16c0-.55-.45-1-1-1s-1,.45-1,1v9.16h-12.23v-7.13ZM2,113.81v-7.13c0-1.69,1.37-3.06,3.06-3.07h117.88c1.69,0,3.06,1.38,3.06,3.07v7.13H2Z"/>
    <path class="st1" d="M89.54,50.25c.38.71.12.52,9,.52.55,0,1-.45,1-1s-.45-1-1-1h-6.25l7.09-10.63c.31-.46.19-1.08-.27-1.39-.17-.11-.36-.17-.56-.17h-8.13c-.55,0-1,.45-1,1s.45,1,1,1h6.26c-7.57,11.36-7.54,10.92-7.14,11.67Z"/>
    <path class="st1" d="M104.65,20.29h6.26l-7.1,10.64c-.3.46-.18,1.08.29,1.39.16.11.36.17.55.16h8.12c.55,0,1-.45,1-1s-.45-1-1-1h-6.26c7.58-11.35,7.54-10.92,7.15-11.66s-.13-.53-9-.53c-.55,0-1,.44-1.01.99,0,.55.44,1,1,1.01h0Z"/>
    <path class="st1" d="M118.87,2h6.26l-7.13,10.64c-.3.46-.18,1.08.29,1.39.16.11.35.16.54.16h8.17c.55,0,1-.45,1-1s-.45-1-1-1h-6.26c7.57-11.35,7.54-10.92,7.14-11.66S127.76,0,118.88,0c-.55,0-1,.44-1,1,0,.55.44,1,1,1Z"/>
    <path class="st1" d="M68.06,63h-8.12c-.55,0-1,.45-1,1s.45,1,1,1h8.12c.55,0,1-.45,1-1s-.45-1-1-1Z"/>
  </g>
</svg>