<?xml version="1.0" encoding="UTF-8"?>
<svg id="Calque_1" xmlns="http://www.w3.org/2000/svg" version="1.1" viewBox="0 0 128 128">
  <!-- Generator: Adobe Illustrator 29.4.0, SVG Export Plug-In . SVG Version: 2.1.0 Build 152)  -->
  <defs>
    <style>
      .st0 {
        fill: #47566a;
      }

      .st1 {
        fill: #fff4e2;
      }
    </style>
  </defs>
  <circle class="st1" cx="63.11" cy="64" r="64"/>
  <g id="Stress">
    <path class="st0" d="M127.49,57c-19.95-11-18.49-10.41-19.12-10.2s-.28-.2-4.4,10.1h-13.55c-.55,0-1.01.43-1.02.98,0,.37.2.72.53.9,19.95,11.08,18.5,10.44,19.07,10.22s.29.2,4.41-10.11h13.59c.55.02,1.02-.41,1.03-.96.01-.39-.2-.75-.54-.93ZM112.77,56.87c-.94,0-.77.24-4.57,9.74l-13.92-7.71h10.37c.94,0,.77-.23,4.57-9.73l13.92,7.73-10.37-.03Z"/>
    <path class="st0" d="M37.58,58.9c.55.03,1.02-.39,1.06-.94.02-.4-.2-.78-.57-.96-19.95-11-18.5-10.41-19.07-10.2s-.29-.2-4.41,10.1H1c-.55,0-1.01.43-1.02.98,0,.37.2.72.53.9,19.95,11.08,18.49,10.44,19.12,10.22s.28.2,4.4-10.11h13.55ZM22.43,57.53l-3.65,9.11-13.92-7.74c10.86,0,10.94.25,11.29-.63l3.65-9.1,13.92,7.73c-10.86,0-10.94-.25-11.29.63Z"/>
    <path class="st0" d="M24.24,37.81c.15.53.7.84,1.23.69.04-.01.08-.02.12-.04l9.41-4.05,9.61,9.59c.38.4,1.02.4,1.41.02.27-.26.37-.66.26-1.02l-5.75-20.11c-.16-.53-.71-.83-1.24-.68-.04.01-.07.02-.11.04l-9.44,4-9.58-9.58c-.38-.4-1.02-.4-1.41-.02-.27.26-.37.66-.26,1.02l5.75,20.14ZM28.8,28.19c.67.67.72.37,10.12-3.66l4.38,15.32c-7.7-7.69-7.56-7.92-8.43-7.54l-9,3.86-4.4-15.31,7.33,7.33Z"/>
    <path class="st0" d="M82.68,44.29c.24,0-.9.29,20.39-5.79.53-.15.84-.7.7-1.23-.01-.04-.03-.09-.05-.13l-4-9.43,9.58-9.58c.4-.38.4-1.02.02-1.41-.26-.27-.66-.37-1.02-.26-22,6.27-20.47,5.69-20.74,6.28s-.35.06,4,10.26l-9.56,9.58c-.39.39-.4,1.02,0,1.41.18.18.43.29.69.3ZM93.45,33.93c.67-.67.37-.71-3.65-10.11l15.31-4.38-7.33,7.33c-.67.67-.38.72,3.65,10.12l-15.31,4.37,7.33-7.33Z"/>
    <path class="st0" d="M63,24v13.58c0,.55.45,1,1,1,.84,0,0,1,11-18.8.27-.48.1-1.09-.38-1.36-.04-.02-.08-.04-.13-.06l-9.49-3.81V1c0-.55-.45-1-1-1-.36,0-.69.19-.87.51-11.13,19.97-10.45,18.49-10.23,19.12s-.21.28,10.1,4.37ZM63,4.86c0,10.85-.25,10.94.63,11.29l9.11,3.65-7.74,13.92c0-10.86.25-10.94-.63-11.29l-9.11-3.65,7.74-13.92Z"/>
    <path class="st0" d="M94,76.56c-11.73-20.56-11.53-20.25-14.43-21-1.19-.35-2.46-.35-3.65,0-6.66-6.38-17.17-6.38-23.83,0-1.19-.34-2.46-.34-3.65,0-2.89.76-2.62.3-14.5,21-13.22,23.14-13.62,22.76-13.62,26.58,0,5.83,4.72,10.56,10.55,10.57,1.39,0,1.43-.08,9.78-1.75v15c0,.55.45,1,1,1s1-.45,1-1c0-17.92.06-16.37-.14-16.73-.2-.36-.59-.56-1-.51-.31,0-.24,0-9,1.78-4.64.92-9.15-2.1-10.07-6.74-.4-2.04-.05-4.15.98-5.95,23.08-40,22.88-40.69,25.28-41.31,2.51-.77,5.18.64,5.95,3.15.02.06.04.12.05.19.72,2.71.36,2.07-21.06,39.2-.26.49-.07,1.09.42,1.35.46.24,1.03.09,1.31-.35.64-1.11,1.27-2.19,1.87-3.24,28.05-6.6,30.72-5.32,53.34,0,.6,1,1.23,2.12,1.87,3.24.3.47.91.6,1.38.31.44-.28.59-.85.35-1.31-21.3-37.04-21.66-36.56-20.99-39.04.6-2.54,3.14-4.12,5.69-3.52.13.03.25.06.37.1,2.41.62,1.89.76,25.28,41.31,2.37,4.1.96,9.34-3.14,11.71-1.8,1.04-3.91,1.39-5.95.98-8.79-1.76-8.68-1.75-9-1.78h-.1c-.23.02-.45.1-.63.24-.56.47-.37-.32-.37,17,0,.55.45,1,1,1s1-.45,1-1v-15.04c7.51,1.5,8.28,1.75,9.78,1.75,5.83-.01,10.55-4.74,10.55-10.57,0-3.99-.58-3.81-13.67-26.62ZM38.71,95.46c3.48-6,6.32-10.88,8.62-14.82,1.29,4.94,4.73,9.05,9.37,11.2-5.82.6-8.97,1.5-17.99,3.62ZM89.29,95.46c-9-2.13-12.2-3-18-3.62,4.65-2.15,8.09-6.27,9.37-11.23,2.76,4.74,5.34,9.09,8.63,14.85ZM71.29,60.33c-.72,2.73-.79,2.79,7.86,17.66-1.01,8.36-8.61,14.32-16.97,13.31-6.97-.84-12.47-6.34-13.31-13.31,8.62-14.77,8.58-14.92,7.85-17.68-.42-1.55-1.39-2.89-2.72-3.79,5.72-4.96,14.22-4.96,19.94,0-1.31.92-2.25,2.27-2.66,3.81h.01Z"/>
    <path class="st0" d="M59,83.62c-.31.46-.19,1.08.27,1.39.34.23.79.23,1.13,0,1.99-1.99,5.21-1.99,7.2,0h0c.45.32,1.08.2,1.39-.25.24-.34.24-.79,0-1.13-2.77-2.75-7.23-2.75-10,0Z"/>
  </g>
</svg>