<?xml version="1.0" encoding="UTF-8"?>
<svg id="Calque_1" xmlns="http://www.w3.org/2000/svg" version="1.1" viewBox="0 0 128 128">
  <!-- Generator: Adobe Illustrator 29.4.0, SVG Export Plug-In . SVG Version: 2.1.0 Build 152)  -->
  <defs>
    <style>
      .st0 {
        fill: #eef2f3;
        isolation: isolate;
      }

      .st1 {
        fill: #47566a;
      }
    </style>
  </defs>
  <circle class="st0" cx="64" cy="64" r="64"/>
  <g id="Theraphy">
    <path class="st1" d="M81.17,29c-.43,1.86-2.09,3.19-4,3.18-.55,0-1,.45-1,1,0,2.2,6.24.79,7-4.15,1.83-.2,3.53-1.02,4.83-2.32.39-.39.39-1.02,0-1.42-.39-.39-1.02-.39-1.42,0-2.17,2.6-6.03,2.95-8.63.78s-2.95-6.03-.78-8.63c.25-.3.53-.57.83-.82.39-.39.39-1.02,0-1.41-1.89-1.89-6.62,6.29-1.42,11.5,1.24,1.24,2.85,2.05,4.59,2.29Z"/>
    <path class="st1" d="M74.92,45c3.51.45,6.16,3.4,6.23,6.94-3.41,1.31-5.66,4.59-5.67,8.24,0,.55.45,1,1,1s1-.45,1-1c0-3.78,3.06-6.83,6.84-6.84.55,0,1-.45,1-1s-.45-1-1-1c-.4,0-.8.03-1.19.09-.31-4.36-3.66-7.88-8-8.41-.55,0-1.01.44-1.01.99,0,.48.33.9.8.99Z"/>
    <path class="st1" d="M33.9,41c-3.25,4.58-2.17,10.93,2.41,14.18.15.1.3.2.45.3-.84,4.94,2.04,9.77,6.79,11.37,2.8,5.59,9.59,7.86,15.19,5.06,2.33-1.17,4.19-3.1,5.26-5.48,2.56,5.7,9.26,8.25,14.96,5.69,2.38-1.07,4.32-2.93,5.49-5.26,4.75-1.61,7.63-6.43,6.79-11.37,4.75-3,6.17-9.28,3.17-14.03-.1-.16-.2-.31-.31-.46,3.72-3.29,4.07-8.98.77-12.7-.14-.15-.28-.3-.42-.45,1.51-5.43-1.67-11.06-7.1-12.57-.23-.06-.46-.12-.69-.17.82-4.29-1.99-8.42-6.28-9.24-.63-.12-1.27-.16-1.91-.13-1.2-4.19-5.56-6.62-9.75-5.42-2,.57-3.7,1.91-4.72,3.73-2.13-3.8-6.94-5.15-10.74-3.02-1.82,1.02-3.16,2.72-3.73,4.72-4.36-.24-8.08,3.1-8.32,7.46-.03.64,0,1.28.13,1.91-5.52,1.12-9.08,6.51-7.96,12.03.05.24.11.48.17.71-3.54,3.49-3.58,9.19-.08,12.73.14.14.29.28.43.41ZM70.9,2c2.57.01,4.83,1.68,5.6,4.13-3.27,1.03-5.5,4.06-5.5,7.49,0,.55.45,1,1,1s1-.45,1-1c.02-3.25,2.66-5.87,5.91-5.85,3.25.02,5.87,2.66,5.85,5.91,0,.66-.12,1.32-.34,1.94-.21.51.03,1.1.54,1.31.11.05.23.07.35.07,4.51.4,7.83,4.38,7.43,8.88-.06.68-.21,1.35-.43,2-.14.39-.03.83.29,1.1,2.86,2.6,3.07,7.03.47,9.89-2.6,2.86-7.03,3.07-9.89.47-.35-.32-.67-.67-.94-1.05-.31-.46-.93-.58-1.39-.27-.46.31-.58.93-.27,1.39h0c2.62,3.85,7.76,5.07,11.83,2.79,2.64,3.66,1.8,8.77-1.86,11.4-.31.22-.63.42-.96.6-.41.22-.61.68-.5,1.13,1.06,4.27-1.45,8.62-5.68,9.84-.28.08-.52.28-.64.55-2.11,4.69-7.63,6.79-12.32,4.68-4.69-2.11-6.79-7.63-4.68-12.32,1.47-3.26,4.67-5.39,8.24-5.49.55,0,1-.45,1-1s-.45-1-1-1c-3.6.09-6.95,1.89-9,4.86v-12.57c0-2.79,2.09-5.15,4.86-5.5.55-.07.94-.57.88-1.12s-.57-.94-1.12-.88c-1.78.22-3.42,1.07-4.62,2.4V7.88c0-3.25,2.63-5.87,5.88-5.88h.02ZM35.35,28.93c.88-.75-.18-1.29-.18-3.84.04-4.23,3.3-7.74,7.52-8.09.32-.03.6-.2.77-.47.47-.73-.26-1-.26-2.86.13-3.25,2.88-5.78,6.13-5.64,3.06.13,5.52,2.58,5.64,5.64,0,.55.45,1,1,1s1-.45,1-1c0-3.42-2.2-6.44-5.45-7.49.95-3.1,4.24-4.84,7.34-3.88,2.45.76,4.13,3.02,4.14,5.58v20.71c-1.21-1.31-2.84-2.16-4.61-2.38-.55-.07-1.06.32-1.12.88s.32,1.06.88,1.12c2.77.35,4.85,2.7,4.86,5.49v21.65c-2.06-2.96-5.4-4.76-9-4.86-.55,0-1,.45-1,1s.45,1,1,1c5.15.14,9.2,4.43,9.06,9.58-.14,5.15-4.43,9.2-9.58,9.06-3.57-.1-6.77-2.23-8.24-5.49-.12-.27-.36-.47-.64-.55-4.23-1.22-6.74-5.57-5.68-9.84.11-.45-.09-.91-.5-1.13-3.99-2.1-5.52-7.05-3.42-11.04.18-.33.38-.66.6-.96,4.07,2.28,9.21,1.06,11.83-2.79.31-.46.19-1.08-.27-1.39s-1.08-.19-1.39.27c-2.28,3.12-6.66,3.8-9.78,1.52s-3.8-6.66-1.52-9.78c.28-.38.59-.73.94-1.05l-.06.04Z"/>
    <path class="st1" d="M44.8,29c.76,4.92,7,6.41,7,4.15,0-.55-.45-1-1-1-1.91,0-3.57-1.32-4-3.18,4.45-.62,7.55-4.73,6.93-9.17-.24-1.75-1.05-3.37-2.29-4.62-.39-.39-1.02-.39-1.42,0-.39.39-.39,1.02,0,1.41,2.39,2.39,2.39,6.28,0,8.67-2.39,2.39-6.28,2.39-8.67,0-.45-.32-1.08-.21-1.39.24-.26.37-.24.86.04,1.21,1.3,1.28,2.99,2.09,4.8,2.29Z"/>
    <path class="st1" d="M52.83,43c-4.34.53-7.69,4.05-8,8.41-.39-.06-.79-.09-1.19-.09-.55,0-1,.45-1,1s.45,1,1,1c3.78,0,6.83,3.06,6.84,6.84,0,.55.45,1,1,1s1-.45,1-1c0-3.65-2.26-6.93-5.67-8.24.08-3.54,2.75-6.49,6.27-6.92.55-.07.94-.57.88-1.12s-.57-.94-1.12-.88Z"/>
    <path class="st1" d="M118.42,57.68c-8.74,20.88-11.24,22-26.2,31.28,1.26-1.87,2.94-4.51,5.15-8.19,2.92-4.86,3.54-8.4,1.85-10.5s-4.84-1.88-7.09-1.12c-6.53,2.17-10.62,14.49-16.49,18.4-4.85,3.24-9.64,11.24-11.64,18.61-2-7.37-6.79-15.37-11.64-18.61-5.92-3.94-9.92-16.21-16.49-18.4-2.25-.76-5.46-.91-7.09,1.12s-1.07,5.64,1.85,10.5c2.21,3.68,3.89,6.32,5.15,8.19-15.2-9.4-17.4-10.37-26.23-31.35-1.29-2.48-4.34-3.45-6.82-2.16-1.67.87-2.73,2.6-2.73,4.49,0,4.46,8.23,24.9,14.52,31.19s12.24,12.24,20.43,18.38c7.54,5.65,5.73,17.21,5.71,17.33-.09.55.29,1.07.84,1.16.55.09,1.07-.29,1.16-.84h0c.09-.52,2-12.86-6.48-19.25-8.08-6.06-14.25-12.23-20.22-18.2S2,63.5,2,59.94c.01-1.7,1.4-3.06,3.09-3.04,1.1,0,2.1.6,2.65,1.55,3.18,7.61,6.85,16.49,12.88,22.55,3.29,3.3,18.29,12.24,18.44,12.33.48.28,1.09.12,1.37-.35.22-.37.17-.84-.11-1.17-.55-.63-2.77-3.36-8-12-2.34-3.9-3.07-6.89-2-8.22.92-1.15,3.12-1.07,4.89-.48,5.54,1.85,9.84,14,16,18.18,5.86,3.81,11.79,15.71,11.79,23.48v14.23c0,.55.45,1,1,1s1-.45,1-1v-14.23c0-7.77,5.93-19.67,11.75-23.55,6.25-4.14,10.45-16.32,16.02-18.22,1.77-.59,4-.67,4.89.48,1.07,1.33.34,4.32-2,8.22-5.21,8.67-7.43,11.4-8,12-.36.42-.32,1.05.09,1.41.32.28.79.33,1.17.11.15-.09,15.15-9,18.44-12.33,6-6,9.68-14.81,12.85-22.44.76-1.51,2.6-2.11,4.11-1.35,1.07.54,1.72,1.65,1.68,2.84,0,3.56-7.91,23.75-13.93,29.77s-12.14,12.14-20.22,18.2c-8.52,6.39-6.57,18.73-6.48,19.25.09.55.61.93,1.16.84.55-.09.93-.61.84-1.16,0-.12-1.83-11.68,5.71-17.33,8.19-6.14,14.41-12.37,20.43-18.38,6.26-6.29,14.49-26.73,14.49-31.19,0-2.79-2.28-5.05-5.07-5.05-1.91,0-3.65,1.08-4.51,2.79Z"/>
  </g>
</svg>